#!OML:ASF F:\VICON\USERDATA\INSTALL\rory3\rory3.ASF
:FULLY-SPECIFIED
:DEGREES
701
root -3.62623 18.021 -3.32613 -6.45175 34.6359 0.0415689
lowerback 9.04793 -3.86231 -6.70665
upperback 0.103947 -5.74949 1.89337
thorax -4.10001 -2.70324 6.42896
lowerneck 5.52193 -23.7496 -16.1001
upperneck 22.6947 -38.447 19.2992
head 14.1233 -17.8028 3.51548
rclavicle 2.56308e-014 2.42517e-014
rhumerus -39.3729 39.3266 -102.908
rradius 92.6332
rwrist 1.25297
rhand -13.1494 8.55201
rfingers 7.12502
rthumb 12.9492 -21.0262
lclavicle 2.56308e-014 2.42517e-014
lhumerus -42.5796 -28.3854 100.383
lradius 91.4727
lwrist 0.995775
lhand -15.2856 35.2935
lfingers 7.12502
lthumb 10.8893 64.9911
rfemur 6.262 3.41131 19.524
rtibia 43.9024
rfoot 4.9236 12.2043
rtoes 0.928108
lfemur -8.04829 0.587274 -17.0317
ltibia 22.9206
lfoot 0.583785 -13.9208
ltoes -2.3575
702
root -3.72793 17.9943 -3.4187 -6.2578 34.9315 0.100389
lowerback 9.07924 -3.74158 -6.63901
upperback 0.0413793 -5.5875 1.84726
thorax -4.21972 -2.61676 6.33391
lowerneck 5.3727 -23.7645 -15.8336
upperneck 22.6772 -38.3448 19.079
head 13.994 -17.7462 3.44373
rclavicle 8.98258e-015 5.96354e-015
rhumerus -39.0258 39.4594 -102.838
rradius 92.6148
rwrist 1.29174
rhand -13.2686 8.28953
rfingers 7.12502
rthumb 12.8343 -21.2959
lclavicle 8.98258e-015 5.96354e-015
lhumerus -42.2441 -28.2682 100.179
lradius 91.3133
lwrist 0.878024
lhand -15.4407 35.5676
lfingers 7.12502
lthumb 10.7397 65.2731
rfemur 7.25577 3.671 19.6909
rtibia 41.6614
rfoot 2.98033 12.5119
rtoes -1.35952
lfemur -9.03925 0.429283 -16.9947
ltibia 23.4654
lfoot 0.769873 -14.1547
ltoes -1.72768
703
root -3.82909 17.9665 -3.5125 -6.075 35.1763 0.177863
lowerback 9.1571 -3.58054 -6.49486
upperback -0.0438775 -5.37153 1.71197
thorax -4.41253 -2.50183 6.10137
lowerneck 5.22945 -23.8612 -15.3087
upperneck 22.7137 -38.2866 18.6071
head 13.7689 -17.7116 3.27138
rclavicle 1.4433e-013 -3.57812e-015
rhumerus -38.7646 39.3604 -102.903
rradius 92.5542
rwrist 1.60989
rhand -13.3849 8.25713
rfingers 7.12502
rthumb 12.7221 -21.3353
lclavicle 1.4433e-013 -3.57812e-015
lhumerus -42.317 -28.1245 99.9427
lradius 91.4885
lwrist 0.778553
lhand -15.2337 35.4473
lfingers 7.12502
lthumb 10.9394 65.1423
rfemur 8.17584 3.89354 19.8327
rtibia 39.5249
rfoot 0.935806 12.634
rtoes -3.42125
lfemur -9.97215 0.320696 -16.9734
ltibia 23.918
lfoot 0.883055 -14.3881
ltoes -1.74811
704
root -3.93221 17.9341 -3.61369 -5.83695 35.285 0.247396
lowerback 9.18604 -3.40746 -6.28525
upperback -0.0930332 -5.1292 1.55567
thorax -4.54896 -2.37975 5.79978
lowerneck 5.28439 -23.829 -15.222
upperneck 22.6267 -38.2618 18.7919
head 13.7506 -17.6926 3.3403
rclavicle -4.16454e-014 -1.15295e-014
rhumerus -38.3629 39.269 -103.015
rradius 92.4473
rwrist 1.67101
rhand -13.2581 8.43503
rfingers 7.12502
rthumb 12.8444 -21.1498
lclavicle -4.16454e-014 -1.15295e-014
lhumerus -42.5328 -27.7781 99.5779
lradius 91.9155
lwrist 0.603976
lhand -15.0176 35.5729
lfingers 7.12502
lthumb 11.1478 65.2567
rfemur 8.90911 4.09399 19.9197
rtibia 37.624
rfoot -1.08187 12.5908
rtoes -3.66705
lfemur -10.8826 0.0869943 -16.9227
ltibia 24.2449
lfoot 0.891815 -14.4493
ltoes -2.28202
705
root -4.04141 17.9067 -3.71814 -5.74066 35.4826 0.152768
lowerback 9.33277 -3.27718 -6.04207
upperback -0.0833734 -4.93863 1.53584
thorax -4.66985 -2.28554 5.63416
lowerneck 5.30601 -23.7932 -15.2656
upperneck 22.4546 -38.2344 19.0627
head 13.7529 -17.6752 3.43805
rclavicle -5.93e-014 -8.34896e-015
rhumerus -37.8675 39.3934 -102.903
rradius 92.3573
rwrist 2.06855
rhand -13.3632 8.4633
rfingers 7.12502
rthumb 12.7431 -21.1278
lclavicle -5.93e-014 -8.34896e-015
lhumerus -42.4285 -27.3913 99.2794
lradius 92.1702
lwrist 0.52322
lhand -14.8931 35.6412
lfingers 7.12502
lthumb 11.2678 65.3186
rfemur 9.67298 4.11456 20.1963
rtibia 35.9318
rfoot -3.62518 12.2082
rtoes -4.12217
lfemur -11.7531 -0.126028 -16.7174
ltibia 24.4749
lfoot 1.07346 -14.6492
ltoes -2.60246
706
root -4.15543 17.88 -3.81654 -5.71092 35.7292 0.0089206
lowerback 9.50461 -3.15794 -5.8644
upperback -0.0661291 -4.76796 1.56563
thorax -4.78304 -2.20003 5.5601
lowerneck 5.17931 -23.8328 -15.302
upperneck 22.516 -38.2768 19.0312
head 13.8106 -17.6795 3.39781
rclavicle -8.39865e-015 1.21259e-014
rhumerus -37.3401 39.5554 -102.696
rradius 92.2617
rwrist 2.32431
rhand -13.1596 8.50993
rfingers 7.12502
rthumb 12.9393 -21.0689
lclavicle -8.39865e-015 1.21259e-014
lhumerus -42.1848 -27.1004 99.0969
lradius 92.268
lwrist 0.74034
lhand -15.0875 35.1656
lfingers 7.12502
lthumb 11.0803 64.8531
rfemur 10.3778 3.95292 20.5798
rtibia 34.4274
rfoot -6.47441 11.3361
rtoes -10.9855
lfemur -12.5432 -0.263311 -16.4592
ltibia 24.5646
lfoot 1.35095 -14.9071
ltoes -2.7784
707
root -4.26834 17.8552 -3.91863 -5.60238 36.0665 -0.0174051
lowerback 9.67861 -3.05444 -5.70767
upperback -0.0396791 -4.62407 1.51117
thorax -4.88877 -2.12875 5.41059
lowerneck 5.16558 -23.8718 -15.2869
upperneck 22.5031 -38.3496 19.1416
head 13.8526 -17.6992 3.40774
rclavicle 3.85145e-016 5.96354e-016
rhumerus -36.7469 39.5143 -102.45
rradius 92.1795
rwrist 2.54864
rhand -12.7921 8.943
rfingers 7.12502
rthumb 13.2936 -20.613
lclavicle 3.85145e-016 5.96354e-016
lhumerus -42.0345 -26.9671 98.8997
lradius 92.4083
lwrist 1.12839
lhand -15.9077 34.2167
lfingers 7.12502
lthumb 10.2892 63.945
rfemur 10.8068 3.74846 20.8508
rtibia 33.0407
rfoot -8.52557 10.294
rtoes -12.9823
lfemur -13.2503 -0.619811 -16.3332
ltibia 24.4295
lfoot 1.67636 -14.9696
ltoes -3.49861
708
root -4.38855 17.8366 -4.02532 -5.41104 36.3001 -0.107269
lowerback 9.82412 -2.95448 -5.48952
upperback -0.0503422 -4.47749 1.44652
thorax -5.0224 -2.05611 5.21424
lowerneck 5.28472 -23.8449 -15.2276
upperneck 22.1932 -38.3474 19.5561
head 13.802 -17.6967 3.55393
rclavicle -2.56308e-014 1.17283e-014
rhumerus -36.1182 39.5036 -102.283
rradius 92.0487
rwrist 3.09681
rhand -12.7335 9.34205
rfingers 7.12502
rthumb 13.3501 -20.2103
lclavicle -2.56308e-014 1.17283e-014
lhumerus -41.9042 -26.8043 98.5895
lradius 92.5929
lwrist 1.34841
lhand -16.5042 34.0092
lfingers 7.12502
lthumb 9.71369 63.7652
rfemur 10.9012 3.56676 21.2055
rtibia 31.7463
rfoot -9.76178 9.39252
rtoes -9.78828
lfemur -13.9538 -0.84915 -16.0876
ltibia 24.0565
lfoot 2.30464 -15.0409
ltoes -3.26563
709
root -4.50402 17.8309 -4.1363 -4.98204 36.6096 0.137217
lowerback 9.90851 -2.87991 -5.51157
upperback -0.0508278 -4.3908 1.33916
thorax -5.08817 -2.01086 5.10922
lowerneck 5.26722 -23.8202 -15.1267
upperneck 21.9814 -38.2956 19.7728
head 13.7412 -17.666 3.63016
rclavicle -5.6635e-014 1.55052e-014
rhumerus -35.5499 39.6644 -102.144
rradius 91.8987
rwrist 3.38236
rhand -13.1344 9.4178
rfingers 7.12502
rthumb 12.9637 -20.1595
lclavicle -5.6635e-014 1.55052e-014
lhumerus -41.5806 -26.5283 98.2777
lradius 92.6563
lwrist 1.33123
lhand -16.6896 34.1814
lfingers 7.12502
lthumb 9.53482 63.9457
rfemur 10.9212 3.0755 21.1448
rtibia 30.5127
rfoot -10.9293 8.57322
rtoes -8.71707
lfemur -14.5986 -1.07539 -16.1945
ltibia 23.4954
lfoot 3.14341 -15.1377
ltoes -2.41123
710
root -4.62244 17.8312 -4.25979 -4.4077 36.987 0.481744
lowerback 10.0564 -2.8011 -5.65932
upperback -0.117922 -4.31516 1.30283
thorax -5.24397 -1.96197 5.15844
lowerneck 5.29079 -23.7876 -15.2867
upperneck 21.8828 -38.2785 19.9959
head 13.7905 -17.6581 3.71519
rclavicle 4.38864e-014 -1.61016e-014
rhumerus -35.3857 39.8104 -102.181
rradius 91.8526
rwrist 3.5403
rhand -13.7216 9.2233
rfingers 7.12502
rthumb 12.3975 -20.3891
lclavicle 4.38864e-014 -1.61016e-014
lhumerus -41.2281 -26.0925 98.1424
lradius 92.6284
lwrist 1.16864
lhand -16.6257 33.8174
lfingers 7.12502
lthumb 9.59646 63.5789
rfemur 10.7539 2.51398 20.9694
rtibia 29.3713
rfoot -12.0526 7.60009
rtoes -8.65607
lfemur -15.2571 -1.42767 -16.3958
ltibia 22.784
lfoot 4.21587 -15.0781
ltoes -0.459916
